{"glyphs":{"0":{"ha":682,"x_min":0,"x_max":0,"o":"m 338 893 b 139 781 192 893 157 869 b 24 432 111 635 24 575 b 172 89 24 285 129 186 b 347 -10 206 7 250 -10 b 499 92 433 -10 478 22 b 650 451 528 197 650 321 b 338 893 650 690 579 893 z m 438 181 b 131 599 311 181 131 346 b 243 736 131 667 163 736 b 542 306 396 736 542 508 b 438 181 542 233 503 181 z "},"1":{"ha":419,"x_min":0,"x_max":0,"o":"m 222 6 b 346 0 258 6 326 0 b 389 39 375 0 389 21 b 281 492 389 111 281 261 b 314 851 281 632 314 775 b 285 896 314 883 303 896 b 242 867 268 896 257 889 b 43 683 193 799 146 753 b 14 639 22 669 14 653 b 53 613 14 622 26 613 b 239 450 144 613 239 571 b 50 35 239 297 50 111 b 88 0 50 14 63 0 b 222 6 122 0 185 6 z "},"2":{"ha":646,"x_min":0,"x_max":0,"o":"m 224 615 b 142 607 196 615 176 607 b 78 653 101 607 78 625 b 335 738 78 708 167 738 b 569 618 479 738 569 707 b 286 426 569 569 519 531 b 14 38 110 349 14 254 b 46 0 14 17 26 0 b 189 14 74 0 132 14 b 468 -8 261 14 414 -8 b 625 133 589 -8 625 47 b 496 282 625 218 557 282 b 458 246 481 282 467 274 b 326 46 435 150 389 46 b 103 219 240 46 103 147 b 224 289 103 258 129 278 b 615 586 578 332 615 385 b 338 900 615 810 522 900 b 38 647 149 900 38 803 b 157 433 38 501 88 433 b 260 553 219 433 260 483 b 224 615 260 604 238 615 z "},"3":{"ha":699,"x_min":0,"x_max":0,"o":"m 215 468 b 561 219 482 419 561 317 b 468 136 561 161 528 136 b 114 285 289 136 114 197 b 169 339 114 325 135 339 b 319 226 260 339 281 226 b 374 293 343 226 374 254 b 235 386 374 349 299 386 b 19 201 100 386 19 326 b 313 -14 19 61 157 -14 b 592 144 464 -14 549 18 b 682 376 622 236 682 314 b 478 497 682 450 633 485 b 444 522 457 499 444 508 b 471 551 444 532 453 546 b 632 708 594 597 632 639 b 333 900 632 835 507 900 b 56 713 168 900 56 818 b 232 599 56 613 174 599 b 274 629 263 599 274 610 b 235 747 274 650 235 664 b 331 858 235 808 271 858 b 465 644 413 858 465 747 b 217 518 465 583 439 551 b 190 493 199 515 190 504 b 215 468 190 481 197 471 z "},"4":{"ha":736,"x_min":0,"x_max":0,"o":"m 433 6 b 557 0 469 6 536 0 b 607 35 590 0 607 18 b 492 186 607 74 492 126 b 521 215 492 204 499 215 b 628 196 553 215 585 196 b 718 317 696 196 718 256 b 631 432 718 396 686 432 b 604 399 610 432 604 421 b 532 249 606 356 592 249 b 488 300 503 249 488 260 b 581 722 488 376 581 651 b 558 757 581 749 569 757 b 524 739 546 757 539 754 b 315 488 431 638 315 557 b 446 300 315 417 446 360 b 364 246 446 263 425 246 b 165 465 243 246 165 368 b 386 856 165 622 386 786 b 353 886 386 876 375 886 b 215 882 336 886 269 882 b 83 886 169 882 113 886 b 49 843 61 886 49 869 b 125 475 49 801 125 613 b 13 243 125 363 13 304 b 56 207 13 224 28 207 b 364 215 103 207 272 215 b 449 188 419 215 449 207 b 207 28 449 128 207 92 b 243 0 207 15 219 0 b 433 6 293 0 381 6 z "},"5":{"ha":688,"x_min":0,"x_max":0,"o":"m 567 194 b 489 124 567 138 532 124 b 251 179 394 124 340 179 b 106 160 183 179 143 160 b 60 206 76 160 60 182 b 131 260 60 233 76 260 b 239 236 172 260 201 236 b 308 349 282 236 308 274 b 247 413 308 394 288 413 b 24 215 149 413 24 342 b 304 -4 24 38 151 -4 b 653 329 529 -4 653 131 b 472 604 653 474 608 604 b 228 522 376 604 329 522 b 140 628 175 522 140 572 b 231 751 140 711 186 751 b 458 681 303 751 378 681 b 606 886 540 681 606 751 b 582 914 606 904 596 914 b 449 860 554 914 539 860 b 132 890 325 860 203 890 b 90 843 103 890 90 871 b 103 643 90 793 103 733 b 69 469 103 567 69 501 b 104 435 69 449 83 435 b 297 488 144 435 196 488 b 567 194 429 488 567 368 z "},"6":{"ha":682,"x_min":0,"x_max":0,"o":"m 429 564 b 125 426 250 564 206 426 b 81 471 97 426 81 439 b 481 825 81 599 361 825 b 529 779 513 825 529 806 b 461 653 529 718 461 690 b 503 625 461 639 474 625 b 636 721 625 625 636 690 b 331 897 635 794 544 897 b 36 411 119 897 36 694 b 347 -10 36 189 146 -10 b 547 128 460 -10 526 33 b 642 426 568 235 642 318 b 429 564 642 497 569 564 z m 89 297 b 335 415 89 358 135 415 b 556 292 478 415 556 354 b 351 194 556 228 526 194 b 89 297 190 194 89 217 z "},"7":{"ha":636,"x_min":0,"x_max":0,"o":"m 406 613 b 89 39 406 444 89 136 b 128 -1 89 13 104 -1 b 296 15 174 -1 232 15 b 460 0 356 15 421 0 b 501 36 485 0 501 15 b 376 332 501 83 376 189 b 435 529 376 407 397 475 b 618 729 510 642 618 638 b 536 890 618 790 590 890 b 311 757 444 890 406 757 b 63 890 239 757 179 890 b 21 850 38 890 21 875 b 33 676 21 801 33 738 b 21 475 33 599 21 522 b 51 438 21 442 38 438 b 307 718 106 438 140 718 b 406 613 381 718 406 671 z "},"8":{"ha":715,"x_min":0,"x_max":0,"o":"m 483 400 b 629 325 594 400 629 371 b 249 138 629 221 400 138 b 169 204 197 138 169 158 b 483 400 169 371 351 400 z m 390 563 b 253 746 328 563 253 657 b 356 864 253 818 294 864 b 444 644 418 864 444 786 b 390 563 444 571 411 563 z m 346 -6 b 696 258 510 -6 696 11 b 474 514 696 367 619 457 b 453 540 458 521 453 528 b 478 571 453 550 461 561 b 664 738 556 618 664 654 b 367 906 664 828 546 906 b 56 713 186 906 56 831 b 303 468 56 622 117 557 b 328 439 321 460 328 447 b 289 411 328 421 315 413 b 22 315 121 406 22 386 b 146 135 22 263 122 203 b 346 -6 186 14 229 -6 z "},"9":{"ha":649,"x_min":0,"x_max":0,"o":"m 244 346 b 533 504 435 346 457 504 b 579 440 563 504 579 486 b 171 69 579 307 331 69 b 129 103 143 69 129 83 b 269 218 129 164 269 174 b 117 290 269 251 219 290 b 21 193 57 290 21 257 b 333 -10 21 93 114 -10 b 628 353 519 -10 628 138 b 550 707 628 560 564 582 b 317 897 533 858 474 897 b 21 553 97 897 21 726 b 244 346 21 436 97 344 z m 528 603 b 303 508 528 542 471 508 b 74 631 154 508 74 564 b 276 719 74 692 117 719 b 528 603 435 719 528 690 z "},"A":{"ha":794,"x_min":0,"x_max":0,"o":"m 147 886 b 104 847 119 886 104 868 b 122 431 104 776 122 676 b 44 75 122 278 44 129 b 213 -4 44 32 74 -4 b 424 115 358 -4 424 29 b 349 178 424 154 407 175 b 164 381 228 188 164 250 b 450 760 164 567 279 760 b 613 625 553 760 613 704 b 478 497 613 550 571 497 b 315 544 399 497 354 544 b 254 458 276 544 254 507 b 329 369 254 411 274 369 b 546 413 396 369 460 413 b 622 332 601 413 622 376 b 471 28 622 178 471 86 b 506 -3 471 10 486 -3 b 613 8 521 -3 576 8 b 701 -1 642 8 682 -1 b 736 38 718 -1 736 8 b 650 526 736 111 650 353 b 714 844 650 701 714 797 b 674 888 714 868 700 888 b 411 876 642 888 539 876 b 147 886 276 876 188 886 z "},"B":{"ha":790,"x_min":0,"x_max":0,"o":"m 67 886 b 32 854 47 886 32 875 b 150 536 32 790 150 724 b 19 31 150 365 19 92 b 56 -4 19 3 35 -4 b 296 25 118 -4 182 25 b 582 -4 374 25 522 -4 b 764 228 711 -4 764 74 b 538 428 764 382 676 419 b 481 458 503 429 481 436 b 694 738 481 515 694 561 b 547 893 694 822 636 893 b 297 849 439 893 407 849 b 67 886 193 849 132 886 z m 304 439 b 556 214 485 439 556 340 b 424 65 556 108 508 65 b 164 333 226 65 164 247 b 304 439 164 404 208 439 z m 339 811 b 476 610 432 811 476 740 b 375 475 476 524 444 475 b 204 664 243 475 204 596 b 339 811 204 751 243 811 z "},"C":{"ha":726,"x_min":0,"x_max":0,"o":"m 121 579 b 207 746 122 717 160 746 b 390 696 279 746 321 696 b 526 715 453 696 490 715 b 574 653 557 715 574 692 b 475 551 574 614 550 551 b 361 571 431 551 400 571 b 290 446 318 571 290 529 b 382 342 290 372 324 342 b 610 619 483 342 553 458 b 710 863 647 725 710 814 b 681 893 710 882 701 893 b 522 864 651 893 624 864 b 354 892 472 864 397 892 b 38 381 157 892 38 694 b 360 -12 38 114 156 -12 b 678 358 538 -12 678 85 b 647 431 678 407 665 431 b 617 388 635 431 625 426 b 393 188 589 263 524 188 b 121 579 218 188 121 361 z "},"D":{"ha":769,"x_min":0,"x_max":0,"o":"m 333 571 b 81 450 258 571 81 544 b 154 221 81 360 154 306 b 57 21 154 128 57 76 b 103 -12 57 -6 76 -12 b 399 10 143 -12 294 10 b 649 -10 500 10 610 -10 b 683 25 675 -10 683 10 b 604 213 683 67 604 138 b 715 582 604 307 715 433 b 278 899 715 775 561 899 b 33 813 79 899 33 858 b 43 699 33 782 43 747 b 42 642 43 679 43 661 b 65 610 42 621 46 610 b 333 700 108 610 201 700 b 596 418 472 700 596 615 b 364 122 596 239 526 121 b 194 233 268 121 194 154 b 368 544 194 369 368 493 b 333 571 368 560 357 571 z "},"E":{"ha":703,"x_min":0,"x_max":0,"o":"m 406 -12 b 676 225 549 -12 676 79 b 642 303 676 278 663 303 b 368 175 592 303 556 175 b 115 385 213 175 115 283 b 203 485 115 444 149 486 b 496 326 343 486 389 326 b 585 511 569 326 585 396 b 564 542 585 535 578 542 b 397 496 538 542 497 496 b 100 665 278 496 100 550 b 190 750 100 722 144 750 b 543 629 310 750 424 629 b 668 769 635 629 668 682 b 624 897 668 822 657 897 b 510 854 599 897 583 854 b 301 889 449 854 357 889 b 32 446 133 889 32 785 b 406 -12 32 136 161 -12 z "},"F":{"ha":667,"x_min":0,"x_max":0,"o":"m 172 886 b 19 739 76 886 19 844 b 144 244 19 613 144 424 b 53 51 144 168 99 96 b 38 22 42 42 38 31 b 64 0 38 8 46 0 b 208 8 104 0 144 8 b 419 -3 281 10 360 -3 b 488 51 468 -3 488 19 b 163 429 488 171 163 247 b 218 494 163 465 182 494 b 499 326 304 494 403 326 b 607 501 585 326 607 397 b 582 542 607 532 596 542 b 400 499 551 542 511 499 b 72 678 322 499 72 557 b 156 751 72 722 97 751 b 535 619 264 751 413 619 b 657 776 625 619 657 683 b 615 899 657 822 647 899 b 492 849 588 899 569 849 b 172 886 400 849 258 886 z "},"G":{"ha":818,"x_min":0,"x_max":0,"o":"m 313 897 b 36 415 192 897 36 694 b 410 -12 36 157 119 -12 b 767 426 644 -12 767 197 b 694 543 767 500 756 543 b 497 519 674 543 524 519 b 451 557 469 519 451 528 b 743 867 451 649 743 789 b 714 897 743 886 733 897 b 518 854 681 897 625 854 b 313 897 450 854 379 897 z m 486 715 b 276 464 486 629 276 511 b 313 436 276 447 290 438 b 686 250 535 421 686 385 b 550 131 686 181 636 131 b 115 588 351 131 115 286 b 203 744 115 700 156 744 b 343 713 244 744 285 713 b 460 743 379 713 425 743 b 486 715 479 743 486 731 z "},"H":{"ha":758,"x_min":0,"x_max":0,"o":"m 254 504 b 104 665 172 504 104 583 b 196 768 104 736 138 768 b 510 669 288 768 415 669 b 669 867 600 669 669 779 b 647 893 669 883 663 893 b 538 863 628 893 604 863 b 257 901 456 863 340 901 b 60 690 140 901 60 826 b 94 296 60 594 94 422 b 39 64 94 200 86 129 b 22 26 28 51 22 36 b 50 0 22 8 32 0 b 182 4 61 0 104 4 b 275 0 211 4 250 0 b 333 47 304 0 333 13 b 207 358 333 114 207 229 b 321 468 207 433 244 468 b 553 178 442 468 553 347 b 485 71 553 108 519 71 b 432 81 460 71 447 81 b 417 61 424 81 417 75 b 531 -10 417 21 465 -10 b 719 286 640 -10 719 67 b 526 604 719 513 631 604 b 254 504 418 604 356 504 z "},"I":{"ha":392,"x_min":0,"x_max":0,"o":"m 211 485 b 326 856 211 672 326 808 b 299 886 326 872 317 886 b 196 883 278 886 236 883 b 101 886 157 883 119 886 b 63 853 75 886 63 875 b 168 485 63 811 168 672 b 17 39 168 317 17 101 b 51 -1 17 15 31 -1 b 210 4 86 -1 156 4 b 344 -1 263 4 328 -1 b 375 29 364 -1 375 8 b 211 485 375 108 211 300 z "},"J":{"ha":544,"x_min":0,"x_max":0,"o":"m 140 886 b 115 861 124 886 115 876 b 343 449 115 810 343 679 b 208 179 343 272 278 179 b 100 264 151 179 124 207 b 65 310 83 304 76 310 b 15 185 40 310 15 250 b 222 -12 15 60 89 -12 b 431 172 349 -12 431 49 b 385 461 431 250 385 335 b 529 854 385 617 529 804 b 497 886 529 875 519 886 b 307 879 444 886 385 879 b 140 886 257 879 189 886 z "},"K":{"ha":811,"x_min":0,"x_max":0,"o":"m 58 857 b 143 497 58 817 143 732 b 17 39 143 324 17 90 b 53 -1 17 14 31 -1 b 207 3 88 -1 150 3 b 357 -4 263 3 342 -4 b 388 25 376 -4 388 7 b 160 335 388 110 160 207 b 282 436 160 404 211 436 b 447 217 404 436 436 364 b 629 -7 458 71 503 -7 b 788 215 754 -7 788 114 b 747 261 788 247 776 261 b 690 260 739 261 710 260 b 444 458 563 260 444 360 b 790 861 444 614 790 686 b 758 886 790 875 783 886 b 640 881 726 886 668 881 b 482 889 614 881 529 889 b 442 854 447 889 442 875 b 479 681 442 819 479 744 b 299 475 479 586 406 475 b 217 567 236 475 217 521 b 306 822 217 660 306 749 b 121 893 306 869 239 893 b 58 857 76 893 58 882 z "},"L":{"ha":739,"x_min":0,"x_max":0,"o":"m 169 888 b 46 775 97 888 47 843 b 154 346 44 600 154 482 b 35 33 154 190 35 79 b 72 -6 35 6 50 -6 b 374 8 136 -6 279 8 b 681 -7 501 8 642 -7 b 721 44 711 -7 721 14 b 461 411 721 224 461 296 b 518 464 461 446 483 464 b 633 418 589 464 597 418 b 685 532 658 418 685 456 b 563 668 685 608 651 668 b 410 496 467 668 410 606 b 467 185 410 407 467 263 b 347 47 467 113 436 47 b 176 188 261 47 176 89 b 279 538 176 321 275 372 b 274 642 279 569 274 610 b 468 857 278 769 468 799 b 435 888 468 879 456 888 b 307 882 403 888 351 882 b 169 888 257 882 207 889 z "},"M":{"ha":1189,"x_min":0,"x_max":0,"o":"m 333 804 b 104 893 267 804 192 893 b 44 843 68 893 44 876 b 163 493 44 749 163 642 b 42 38 163 324 42 97 b 75 -1 42 14 54 -1 b 196 3 100 -1 153 3 b 314 -4 242 3 300 -4 b 346 25 335 -4 346 6 b 207 496 346 153 207 303 b 331 758 207 632 257 758 b 532 375 438 758 532 497 b 432 39 532 219 432 124 b 568 -10 432 1 449 -10 b 767 39 744 -10 767 4 b 574 364 767 113 574 185 b 778 731 574 575 671 731 b 892 579 861 731 893 682 b 803 157 893 406 803 303 b 978 -6 803 54 868 -6 b 1163 224 1104 -6 1163 90 b 1129 307 1163 282 1146 307 b 993 238 1106 307 1083 238 b 883 317 947 238 883 251 b 1093 738 883 428 1092 508 b 950 894 1092 838 1029 894 b 656 724 804 894 725 724 b 624 763 631 724 625 735 b 532 893 621 833 600 893 b 333 804 463 893 411 804 z "},"N":{"ha":803,"x_min":0,"x_max":0,"o":"m 15 836 b 158 375 15 754 158 561 b 26 32 158 221 26 107 b 193 -12 26 -3 46 -12 b 392 36 369 -12 392 3 b 197 364 392 100 197 186 b 403 721 197 571 297 721 b 517 579 488 721 518 676 b 433 171 518 411 433 313 b 610 -6 433 60 503 -6 b 788 233 743 -6 788 128 b 760 308 788 282 775 308 b 736 290 751 308 744 300 b 617 229 713 258 683 229 b 507 317 572 229 507 244 b 718 738 507 442 718 513 b 575 894 718 838 654 894 b 272 713 425 894 343 713 b 233 754 240 713 233 736 b 246 853 233 790 246 826 b 218 886 246 874 238 886 b 133 879 196 886 165 881 b 58 885 108 879 83 885 b 15 836 36 885 15 869 z "},"O":{"ha":731,"x_min":0,"x_max":0,"o":"m 247 892 b 42 529 153 892 42 767 b 107 175 42 376 107 251 b 101 86 107 149 101 103 b 346 -6 101 11 193 -6 b 614 96 550 -6 614 29 b 606 204 614 139 606 161 b 693 543 606 296 693 424 b 488 892 693 781 561 892 b 364 875 453 892 407 875 b 247 892 338 875 274 892 z m 222 751 b 579 301 447 751 579 433 b 421 157 579 226 532 157 b 228 300 331 157 274 179 b 90 613 190 406 90 482 b 222 751 90 703 126 751 z "},"P":{"ha":724,"x_min":0,"x_max":0,"o":"m 22 853 b 144 519 22 810 144 700 b 21 24 144 297 21 79 b 51 -6 21 1 36 -6 b 188 1 82 -6 140 1 b 356 -4 254 1 343 -4 b 382 25 369 -4 382 8 b 181 457 382 86 181 192 b 367 754 181 711 279 754 b 615 458 515 754 615 615 b 519 325 615 364 583 325 b 435 422 476 325 435 351 b 443 500 435 464 443 481 b 415 525 443 518 432 525 b 265 356 340 525 265 465 b 411 208 265 258 332 208 b 708 638 586 208 708 393 b 576 897 708 836 651 897 b 332 851 519 897 426 851 b 65 886 243 851 132 886 b 22 853 33 886 22 872 z "},"Q":{"ha":829,"x_min":0,"x_max":0,"o":"m 799 165 b 772 201 799 190 792 201 b 674 169 749 201 724 169 b 647 193 656 169 647 181 b 761 526 647 242 761 326 b 489 892 761 807 574 892 b 357 875 444 892 394 875 b 228 892 329 875 254 892 b 33 515 143 892 33 769 b 333 -6 33 182 181 -6 b 599 147 518 -6 560 147 b 714 -6 642 147 624 -6 b 799 165 764 -6 799 76 z m 86 599 b 247 758 86 699 124 758 b 621 251 481 758 621 571 b 599 224 621 233 611 224 b 410 489 528 224 522 489 b 300 321 340 489 300 418 b 344 276 300 289 317 278 b 563 188 453 272 563 226 b 479 154 563 168 542 154 b 86 599 258 154 86 332 z "},"R":{"ha":814,"x_min":0,"x_max":0,"o":"m 100 886 b 61 853 75 886 61 876 b 169 418 61 803 169 697 b 15 36 169 251 15 88 b 46 -1 15 14 28 -1 b 224 3 86 -1 163 3 b 378 -4 285 3 360 -4 b 410 25 401 -4 410 7 b 210 417 410 113 210 192 b 408 790 210 635 293 790 b 521 638 482 790 521 747 b 336 407 521 532 475 438 b 307 378 317 403 307 393 b 342 347 307 363 319 349 b 471 215 436 344 469 300 b 699 -7 474 71 525 -7 b 804 36 772 -7 804 6 b 769 85 804 53 796 65 b 710 201 740 108 719 149 b 529 351 689 308 642 342 b 463 394 492 357 463 367 b 740 694 463 485 740 496 b 526 883 740 799 656 883 b 329 879 465 883 399 879 b 100 886 240 879 132 886 z "},"S":{"ha":699,"x_min":0,"x_max":0,"o":"m 315 896 b 38 618 172 896 38 757 b 401 374 38 463 149 425 b 614 246 556 342 614 315 b 451 150 614 178 558 150 b 197 324 271 150 204 229 b 161 357 194 346 188 357 b 28 208 83 357 28 290 b 356 -8 28 108 93 -8 b 654 251 563 -8 654 107 b 175 738 654 531 175 547 b 240 806 175 783 201 806 b 554 613 369 806 465 613 b 663 785 606 613 663 718 b 632 824 663 810 656 825 b 315 896 556 821 460 896 z "},"T":{"ha":708,"x_min":0,"x_max":0,"o":"m 415 733 b 571 603 492 733 508 603 b 692 843 622 603 692 744 b 647 886 692 869 678 886 b 365 876 625 886 471 876 b 67 888 238 876 136 888 b 28 846 32 888 28 869 b 36 754 28 825 36 786 b 29 653 36 721 29 668 b 61 621 29 631 40 621 b 256 768 111 621 164 768 b 314 715 294 768 314 750 b 57 218 314 583 57 422 b 367 -12 57 51 167 -12 b 679 219 521 -12 679 61 b 615 335 679 257 660 281 b 532 431 567 394 561 431 b 497 371 517 431 500 418 b 385 28 476 106 472 28 b 282 249 307 28 282 122 b 415 733 282 518 340 733 z "},"U":{"ha":786,"x_min":0,"x_max":0,"o":"m 163 890 b 18 832 63 890 18 871 b 124 478 18 790 124 740 b 24 143 124 340 24 251 b 228 -18 24 39 131 -18 b 403 142 340 -18 379 35 b 485 242 414 196 435 242 b 532 193 521 242 532 221 b 508 67 532 150 508 107 b 639 -8 508 11 542 -8 b 761 58 728 -8 761 24 b 568 489 761 133 568 268 b 771 856 568 679 771 800 b 739 886 771 874 760 886 b 601 883 696 886 633 883 b 440 888 544 883 467 888 b 397 854 411 888 397 874 b 529 542 397 806 529 732 b 275 211 529 349 435 211 b 139 325 175 211 139 267 b 329 776 139 469 329 656 b 163 890 329 847 274 890 z "},"V":{"ha":731,"x_min":0,"x_max":0,"o":"m 0 840 b 81 631 0 810 64 801 b 192 176 107 357 192 268 b 163 31 192 104 163 56 b 208 -11 163 3 179 -11 b 710 610 608 -11 710 417 b 597 889 710 807 674 889 b 500 883 558 889 521 883 b 410 889 467 883 435 889 b 369 856 383 889 369 881 b 494 688 369 801 415 721 b 656 488 581 650 656 610 b 356 260 656 383 550 260 b 178 385 272 260 178 293 b 315 725 178 514 315 593 b 146 890 315 801 293 890 b 0 840 68 890 0 871 z "},"W":{"ha":1032,"x_min":0,"x_max":0,"o":"m 51 888 b 13 851 25 888 13 875 b 175 235 13 789 175 571 b 169 43 175 149 169 86 b 203 -4 169 11 179 -4 b 510 422 365 -4 438 422 b 792 -4 583 422 574 -4 b 849 94 826 -4 842 35 b 1003 715 883 396 1003 539 b 864 890 1003 821 949 890 b 726 876 818 890 763 876 b 617 888 683 876 636 888 b 579 856 589 888 579 874 b 903 513 579 779 903 721 b 757 317 903 403 842 317 b 600 508 638 317 600 386 b 618 700 600 611 618 657 b 507 751 618 736 585 751 b 392 699 428 751 392 732 b 440 464 392 647 440 603 b 325 319 440 397 418 319 b 188 519 228 319 188 414 b 396 858 188 753 396 811 b 367 889 396 875 388 889 b 199 878 321 889 261 878 b 51 888 124 878 78 888 z "},"X":{"ha":858,"x_min":0,"x_max":0,"o":"m 67 888 b 38 853 50 888 38 874 b 268 471 38 776 268 646 b 17 31 268 353 17 103 b 46 1 17 15 22 1 b 160 8 69 1 136 8 b 307 0 218 8 281 0 b 339 38 332 0 339 18 b 272 325 339 76 272 217 b 351 422 272 379 294 422 b 450 263 410 422 450 386 b 443 124 450 224 443 169 b 546 0 443 22 506 0 b 671 6 592 0 629 6 b 797 0 699 6 769 0 b 836 36 825 0 836 15 b 568 404 836 111 568 208 b 679 704 568 564 621 704 b 758 693 704 704 732 693 b 840 856 799 693 840 751 b 813 890 840 883 828 890 b 728 879 788 890 764 879 b 603 886 682 879 632 886 b 526 771 556 886 526 856 b 538 536 526 729 538 593 b 472 436 538 482 526 436 b 393 565 426 436 393 464 b 403 775 393 618 403 713 b 328 886 403 874 367 886 b 176 882 258 886 217 882 b 67 888 151 882 81 886 z "},"Y":{"ha":776,"x_min":0,"x_max":0,"o":"m 25 861 b 183 757 25 821 67 793 b 311 665 256 735 311 707 b 190 592 311 638 289 615 b 46 465 71 561 46 515 b 368 326 46 372 154 335 b 590 243 542 319 590 304 b 472 161 590 192 539 161 b 151 214 349 161 235 214 b 60 111 89 214 60 182 b 53 32 60 83 53 50 b 90 0 53 7 68 0 b 257 13 131 0 172 13 b 485 -4 349 13 403 -4 b 629 249 585 -4 633 75 b 661 594 628 360 639 494 b 769 860 697 765 769 824 b 740 889 769 876 757 889 b 631 883 722 889 678 883 b 483 888 568 883 521 888 b 449 857 461 888 449 881 b 536 561 449 810 536 710 b 371 365 536 431 442 365 b 289 458 315 365 289 394 b 379 797 289 556 379 663 b 321 886 379 863 361 886 b 174 881 296 886 242 881 b 54 886 133 881 88 886 b 25 861 36 886 25 876 z "},"Z":{"ha":786,"x_min":0,"x_max":0,"o":"m 143 888 b 88 833 108 888 88 875 b 90 731 88 797 90 761 b 78 603 90 700 78 633 b 107 565 78 579 89 565 b 349 736 160 565 183 736 b 476 622 444 736 476 693 b 304 414 476 546 410 478 b 15 47 167 328 15 210 b 57 -4 15 19 31 -4 b 347 31 132 -4 267 31 b 621 -4 447 31 549 -4 b 760 160 701 -4 760 21 b 560 376 760 272 693 376 b 525 346 535 376 525 364 b 557 196 525 314 557 267 b 386 71 557 124 510 71 b 256 168 303 71 256 101 b 511 565 256 300 436 365 b 760 856 582 760 760 800 b 725 889 760 879 750 889 b 442 881 683 889 550 881 b 143 888 297 881 189 888 z "},"a":{"ha":742,"x_min":0,"x_max":0,"o":"m 611 756 b 524 750 583 756 560 750 b 374 756 483 750 429 756 b 40 211 158 756 40 497 b 174 -12 40 51 79 -12 b 460 333 310 -12 460 229 b 429 368 460 353 450 368 b 382 269 397 368 390 339 b 283 147 374 188 347 147 b 183 406 219 147 183 192 b 275 660 183 628 213 660 b 572 451 388 660 572 575 b 417 44 572 299 417 128 b 463 -1 417 8 431 -1 b 561 3 492 -1 526 1 b 685 0 603 3 647 0 b 715 35 701 0 715 19 b 621 465 715 92 621 285 b 654 715 621 539 654 674 b 611 756 654 738 644 756 z "},"b":{"ha":706,"x_min":0,"x_max":0,"o":"m 129 428 b 24 29 129 313 24 83 b 57 -6 24 10 36 -6 b 289 22 88 -6 243 22 b 451 0 331 22 394 0 b 642 339 590 0 642 90 b 478 758 642 651 607 758 b 254 644 351 758 254 682 b 299 608 254 629 268 615 b 592 440 532 551 592 515 b 371 103 592 371 489 104 b 171 429 257 103 171 308 b 294 913 171 668 294 849 b 265 942 294 928 286 942 b 110 882 242 942 192 907 b 11 822 28 858 11 847 b 129 428 11 767 129 619 z "},"c":{"ha":643,"x_min":0,"x_max":0,"o":"m 521 528 b 614 726 565 528 614 644 b 582 760 614 754 596 760 b 467 746 558 760 514 746 b 297 754 396 746 338 754 b 31 313 217 754 31 533 b 360 -14 31 144 113 -14 b 618 267 549 -14 618 163 b 599 293 618 285 613 293 b 383 169 564 293 531 169 b 156 474 267 169 156 228 b 239 629 156 590 181 629 b 521 528 372 629 454 528 z "},"d":{"ha":758,"x_min":0,"x_max":0,"o":"m 442 829 b 583 399 442 763 583 610 b 421 75 583 283 535 75 b 194 507 301 75 194 232 b 246 639 194 611 214 639 b 432 576 279 639 392 576 b 463 607 450 574 463 585 b 329 761 463 668 386 761 b 50 267 213 761 50 538 b 186 -7 50 63 117 -7 b 404 28 261 -7 329 28 b 682 -3 458 28 643 -3 b 715 33 704 -3 715 11 b 632 463 715 81 632 282 b 714 906 632 578 714 857 b 679 942 714 925 706 942 b 478 868 647 942 569 883 b 442 829 458 864 442 857 z "},"e":{"ha":664,"x_min":0,"x_max":0,"o":"m 31 313 b 365 -14 31 144 113 -14 b 617 208 547 -14 617 142 b 593 253 617 238 610 253 b 393 164 556 253 536 164 b 153 524 260 164 153 231 b 231 681 153 642 176 681 b 481 424 354 681 481 546 b 431 382 481 392 454 382 b 269 403 335 382 294 403 b 236 371 251 403 236 393 b 293 326 236 339 265 326 b 565 357 390 326 489 357 b 629 415 618 357 629 382 b 543 719 629 458 594 613 b 485 760 526 756 510 760 b 357 746 458 760 408 746 b 215 754 300 746 254 754 b 31 313 156 754 31 533 z "},"f":{"ha":413,"x_min":0,"x_max":0,"o":"m 118 483 b 10 47 118 325 10 108 b 54 0 10 19 26 0 b 171 4 81 0 128 4 b 324 0 221 4 310 0 b 358 33 346 0 358 10 b 163 499 358 104 163 271 b 197 540 163 526 179 540 b 349 518 239 540 313 518 b 396 661 378 518 396 571 b 368 696 396 688 389 696 b 167 661 344 696 232 661 b 79 749 101 661 79 696 b 153 813 79 779 92 813 b 331 772 231 813 290 772 b 411 908 374 772 411 846 b 385 936 411 931 397 936 b 296 924 364 936 329 924 b 194 931 258 924 218 931 b 33 761 97 931 33 853 b 118 483 33 642 118 597 z "},"g":{"ha":728,"x_min":0,"x_max":0,"o":"m 588 756 b 501 750 561 756 536 750 b 390 756 472 750 432 756 b 42 344 158 756 42 508 b 228 119 42 186 99 119 b 479 325 399 119 479 265 b 461 350 479 335 476 350 b 333 261 428 350 417 261 b 185 517 246 261 185 336 b 269 661 185 633 200 661 b 560 467 408 661 560 599 b 368 -99 560 218 482 -99 b 194 64 267 -99 264 64 b 24 -24 129 64 24 29 b 389 -146 24 -104 181 -146 b 699 35 578 -146 699 -68 b 606 465 699 183 606 332 b 626 718 606 539 626 676 b 588 756 626 738 618 756 z "},"h":{"ha":738,"x_min":0,"x_max":0,"o":"m 208 375 b 363 607 208 551 260 607 b 574 465 463 607 574 539 b 433 128 574 376 433 276 b 603 -4 433 38 492 -4 b 721 38 688 -4 721 7 b 607 367 721 79 607 143 b 658 672 607 492 658 586 b 567 768 658 740 629 768 b 246 621 443 768 296 621 b 229 642 236 621 229 626 b 285 914 229 728 285 868 b 257 942 285 928 278 942 b 119 885 226 942 192 906 b 15 819 24 857 15 847 b 167 375 15 761 167 601 b 26 46 167 251 26 93 b 68 0 26 18 42 0 b 200 4 96 0 153 4 b 306 0 240 4 293 0 b 336 33 325 0 336 10 b 208 375 336 93 208 236 z "},"i":{"ha":371,"x_min":0,"x_max":0,"o":"m 208 347 b 283 732 208 542 283 682 b 250 771 283 754 275 771 b 110 746 224 771 194 754 b 8 707 18 738 8 733 b 167 347 8 653 167 500 b 26 38 167 229 26 88 b 67 0 26 13 39 0 b 200 4 90 0 151 4 b 303 0 240 4 290 0 b 335 35 324 0 335 11 b 208 347 335 89 208 219 z m 157 825 b 294 965 206 825 294 896 b 258 996 294 988 283 996 b 192 994 243 996 221 994 b 71 1007 122 994 89 1007 b 38 979 47 1007 38 993 b 157 825 38 922 107 825 z "},"j":{"ha":346,"x_min":0,"x_max":0,"o":"m 208 375 b 283 736 208 558 283 690 b 254 771 283 757 274 771 b 110 746 229 771 194 754 b 8 704 31 739 8 733 b 167 375 8 650 167 514 b -47 -97 167 265 97 44 b -65 -129 -60 -108 -65 -118 b -32 -153 -65 -144 -56 -153 b 247 -35 44 -153 156 -75 b 324 49 310 -10 324 7 b 208 375 324 110 208 219 z m 174 825 b 293 979 222 825 293 922 b 260 1007 293 993 283 1007 b 139 994 242 1007 208 994 b 72 996 110 994 88 996 b 36 965 47 996 36 988 b 174 825 36 896 125 825 z "},"k":{"ha":747,"x_min":0,"x_max":0,"o":"m 207 511 b 283 910 207 706 283 853 b 256 942 283 926 276 942 b 110 882 224 942 188 904 b 8 825 17 856 8 850 b 167 426 8 779 167 629 b 26 43 167 285 26 107 b 71 0 26 19 43 0 b 200 4 99 0 154 4 b 304 0 240 4 292 0 b 335 33 324 0 335 10 b 204 311 335 96 204 197 b 269 379 204 351 224 379 b 431 217 394 379 411 325 b 622 -7 468 22 488 -7 b 746 26 732 -7 746 3 b 465 397 746 135 465 313 b 546 468 465 426 479 438 b 686 619 642 513 686 553 b 435 767 686 692 632 767 b 275 679 308 767 275 717 b 304 649 275 663 286 649 b 392 718 338 649 346 718 b 499 569 465 718 499 633 b 307 424 499 482 433 424 b 207 511 232 424 207 446 z "},"l":{"ha":371,"x_min":0,"x_max":0,"o":"m 208 375 b 288 908 208 646 288 840 b 257 942 288 925 279 942 b 107 882 235 942 186 904 b 14 819 22 857 14 847 b 167 411 14 769 167 622 b 26 46 167 236 26 101 b 71 0 26 18 43 0 b 200 4 97 0 154 4 b 300 0 239 4 289 0 b 336 32 324 0 336 10 b 208 375 336 92 208 235 z "},"m":{"ha":1149,"x_min":0,"x_max":0,"o":"m 571 406 b 446 32 571 293 446 136 b 476 -3 446 8 460 -3 b 586 4 513 -3 535 4 b 714 -3 629 4 667 -3 b 749 40 738 -3 749 18 b 614 413 749 124 614 304 b 739 594 614 507 651 594 b 979 467 868 594 979 528 b 824 128 979 385 824 282 b 1010 -4 824 38 889 -4 b 1128 32 1096 -4 1128 6 b 1014 400 1128 67 1014 146 b 1065 654 1014 490 1065 583 b 974 768 1065 735 1036 768 b 681 632 858 768 743 632 b 649 665 661 632 653 644 b 560 761 639 742 608 761 b 311 672 463 761 419 672 b 69 753 238 672 185 753 b 32 717 51 753 32 742 b 168 390 32 644 167 525 b 31 36 168 290 31 138 b 64 -3 31 10 44 -3 b 179 4 103 -3 115 4 b 318 -3 226 4 265 -3 b 350 39 340 -3 350 17 b 211 413 350 122 211 304 b 332 631 211 493 244 631 b 571 406 429 631 571 506 z "},"n":{"ha":743,"x_min":0,"x_max":0,"o":"m 69 753 b 32 715 49 753 32 742 b 164 390 32 643 164 524 b 26 38 164 290 26 139 b 60 -3 26 11 40 -3 b 179 4 100 -3 113 4 b 294 -3 218 4 251 -3 b 332 38 321 -3 332 17 b 210 435 332 122 210 283 b 332 632 210 519 244 632 b 576 461 451 632 576 536 b 432 128 576 376 432 282 b 610 -4 432 38 493 -4 b 728 39 694 -4 728 7 b 614 381 728 76 614 138 b 665 640 614 483 665 571 b 574 768 665 746 626 768 b 317 675 471 768 425 675 b 69 753 238 675 183 753 z "},"o":{"ha":675,"x_min":0,"x_max":0,"o":"m 182 761 b 32 433 56 761 32 501 b 347 -11 32 139 189 -11 b 644 450 506 -11 644 139 b 503 761 644 567 618 761 b 347 744 453 761 401 744 b 182 761 292 744 240 761 z m 579 303 b 449 171 579 235 543 171 b 86 506 256 171 86 326 b 214 626 86 585 119 626 b 579 303 453 626 579 458 z "},"p":{"ha":710,"x_min":0,"x_max":0,"o":"m 318 -90 b 167 353 318 -21 167 135 b 317 683 167 471 211 683 b 539 228 460 683 539 481 b 494 133 539 150 519 133 b 335 181 464 133 368 181 b 299 146 310 181 299 169 b 414 -10 299 72 336 -10 b 668 525 547 -10 668 269 b 529 772 668 711 597 772 b 332 724 457 772 403 724 b 49 757 276 724 88 757 b 13 726 26 757 13 744 b 118 289 13 667 118 472 b 19 -149 118 185 19 -67 b 51 -179 19 -165 25 -179 b 275 -126 92 -179 168 -126 b 318 -90 299 -126 318 -117 z "},"q":{"ha":706,"x_min":0,"x_max":0,"o":"m 556 353 b 394 -139 556 215 394 -71 b 432 -179 394 -160 403 -179 b 649 -126 457 -179 543 -133 b 688 -85 669 -125 688 -115 b 604 358 688 -6 604 176 b 624 722 604 510 624 660 b 588 756 624 740 615 756 b 500 750 560 756 535 750 b 375 756 465 750 422 756 b 42 211 154 756 42 503 b 179 -7 42 54 81 -7 b 471 333 338 -7 471 235 b 443 367 471 353 463 367 b 401 282 414 367 407 333 b 281 156 392 193 361 156 b 182 403 219 156 182 199 b 281 660 182 625 211 660 b 556 353 385 660 556 536 z "},"r":{"ha":536,"x_min":0,"x_max":0,"o":"m 524 715 b 475 756 524 753 517 756 b 343 626 425 756 400 749 b 244 525 301 539 281 525 b 219 558 228 525 219 539 b 240 713 219 601 240 669 b 210 753 240 738 231 753 b 147 750 192 753 169 750 b 51 753 117 750 69 753 b 15 717 33 753 15 742 b 168 390 15 643 168 524 b 24 31 168 289 24 133 b 56 -3 24 8 38 -3 b 185 4 97 -3 124 4 b 369 -3 246 4 299 -3 b 400 39 390 -3 400 18 b 211 386 400 124 211 249 b 314 497 211 432 236 497 b 461 463 369 497 429 463 b 501 524 497 463 501 489 b 524 715 501 579 524 669 z "},"s":{"ha":593,"x_min":0,"x_max":0,"o":"m 46 551 b 519 219 46 271 519 339 b 400 150 519 178 468 150 b 68 279 161 150 117 279 b 40 244 53 279 40 269 b 299 -14 40 76 110 -14 b 567 231 439 -14 567 99 b 167 646 567 442 167 485 b 233 713 167 686 194 713 b 472 536 335 713 418 536 b 526 633 500 536 510 561 b 574 733 543 697 574 708 b 547 758 574 747 568 758 b 456 751 526 758 490 751 b 257 757 382 751 315 757 b 46 551 118 757 46 669 z "},"t":{"ha":431,"x_min":0,"x_max":0,"o":"m 210 575 b 246 615 210 607 224 615 b 331 601 269 615 300 601 b 388 714 379 601 388 628 b 349 753 388 743 379 753 b 233 750 331 753 283 750 b 201 782 213 750 201 757 b 218 914 201 815 218 882 b 192 942 218 928 211 942 b 111 831 165 942 144 900 b 8 633 56 714 8 678 b 46 608 8 621 21 608 b 124 613 65 608 104 613 b 163 532 153 613 163 606 b 63 81 163 326 63 186 b 213 -12 63 17 121 -12 b 411 129 350 -12 411 78 b 386 158 411 142 406 158 b 342 156 376 158 365 156 b 210 575 242 156 210 293 z "},"u":{"ha":747,"x_min":0,"x_max":0,"o":"m 468 144 b 517 101 501 144 513 125 b 661 -3 535 1 554 -3 b 746 38 735 -3 746 11 b 585 360 746 118 586 225 b 710 717 585 461 710 614 b 675 753 710 740 694 753 b 569 746 635 753 622 746 b 461 753 532 746 501 753 b 425 715 436 753 425 736 b 542 364 425 647 542 536 b 428 183 542 286 521 183 b 175 339 282 183 175 272 b 315 635 175 442 315 513 b 136 754 315 717 251 754 b 21 710 50 754 21 742 b 131 417 21 669 131 615 b 60 144 131 304 60 215 b 268 -11 60 71 147 -11 b 468 144 343 -11 375 144 z "},"v":{"ha":660,"x_min":0,"x_max":0,"o":"m 1 724 b 172 61 1 649 172 301 b 231 -11 172 11 181 -11 b 611 496 446 -11 611 211 b 514 753 611 688 581 753 b 429 749 478 753 447 749 b 351 753 401 749 372 753 b 311 722 326 753 311 743 b 554 408 311 636 554 614 b 335 189 554 310 475 189 b 179 321 258 189 179 217 b 240 671 179 442 240 528 b 115 767 240 717 224 767 b 1 724 54 767 1 754 z "},"w":{"ha":1022,"x_min":0,"x_max":0,"o":"m 47 757 b 7 731 21 757 7 747 b 138 303 7 675 138 535 b 221 -4 138 31 144 -4 b 451 321 333 -4 388 321 b 775 -4 524 321 664 -4 b 836 68 813 -4 829 21 b 983 610 868 351 983 438 b 839 756 983 697 926 756 b 708 751 794 756 743 751 b 606 757 668 751 624 757 b 569 731 578 757 569 744 b 876 447 569 658 876 633 b 756 261 876 347 825 261 b 550 564 643 261 564 488 b 513 614 543 600 539 614 b 471 564 493 614 483 606 b 301 272 450 488 400 272 b 178 443 221 272 178 353 b 397 732 178 642 397 688 b 363 760 397 747 388 760 b 178 747 311 760 246 747 b 47 757 110 747 71 757 z "},"x":{"ha":743,"x_min":0,"x_max":0,"o":"m 49 756 b 19 724 32 756 19 743 b 289 376 19 643 289 439 b 10 35 289 314 10 117 b 39 1 10 17 17 1 b 122 7 58 1 103 7 b 254 0 175 7 232 0 b 288 36 283 0 288 18 b 278 240 288 57 278 163 b 349 324 278 286 300 324 b 446 188 407 324 436 296 b 499 0 456 44 454 0 b 585 4 532 0 556 4 b 700 0 610 4 676 0 b 733 29 724 0 733 13 b 465 367 733 114 465 297 b 636 590 465 438 551 547 b 717 722 685 614 717 633 b 686 760 717 754 706 760 b 617 751 664 760 644 751 b 524 756 576 751 550 756 b 471 660 481 756 471 736 b 382 417 471 488 457 418 b 301 529 342 418 301 453 b 244 756 301 740 290 756 b 131 751 197 756 167 751 b 49 756 108 751 61 756 z "},"y":{"ha":640,"x_min":0,"x_max":0,"o":"m 251 71 b 429 94 343 71 406 94 b 458 64 451 94 458 82 b 140 -132 458 -22 140 -54 b 181 -162 140 -150 151 -162 b 329 -160 228 -162 281 -160 b 456 -162 372 -160 414 -162 b 528 124 511 -162 528 -144 b 625 721 528 417 625 664 b 594 756 625 743 611 756 b 514 750 583 756 549 750 b 388 754 461 750 419 754 b 351 722 364 754 351 747 b 500 365 351 674 500 478 b 196 199 500 264 350 199 b 108 257 143 199 108 219 b 269 635 108 349 269 482 b 81 754 269 717 203 754 b -1 718 22 754 -1 742 b 78 492 -1 678 78 658 b 65 260 78 436 65 354 b 251 71 65 121 122 71 z "},"z":{"ha":663,"x_min":0,"x_max":0,"o":"m 117 753 b 61 694 82 753 61 740 b 49 500 61 583 49 543 b 81 461 49 475 61 461 b 347 653 126 461 197 653 b 460 576 410 653 460 633 b 356 446 460 540 436 506 b 18 38 200 335 18 226 b 63 -4 18 15 35 -4 b 300 18 124 -4 232 18 b 582 -4 396 18 499 -6 b 640 265 626 -4 640 43 b 613 307 640 292 628 307 b 260 144 565 307 550 144 b 193 175 204 144 193 151 b 635 711 193 281 635 569 b 596 754 635 742 626 754 b 360 746 561 754 450 746 b 117 753 243 746 154 753 z "},".":{"ha":349,"x_min":0,"x_max":0,"o":"m 331 140 b 175 288 331 207 244 288 b 18 140 104 288 18 207 b 175 -7 18 79 110 -7 b 331 140 239 -7 331 79 z "},",":{"ha":328,"x_min":0,"x_max":0,"o":"m 36 -165 b 306 196 175 -165 306 31 b 243 275 306 261 288 275 b 164 271 229 275 189 271 b 78 274 139 271 107 274 b 36 232 53 274 36 263 b 64 51 36 181 64 136 b -3 -136 64 -62 -3 -101 b 36 -165 -3 -154 10 -165 z "}," ":{"ha":274,"x_min":0,"x_max":0,"o":""}," ":{"ha":274,"x_min":0,"x_max":0,"o":""}}}
